<?xml version="1.0" encoding="UTF-8" standalone="no"?>
<!-- Svg Vector Icons : http://www.onlinewebfonts.com/icon -->

<svg
   version="1.1"
   x="0px"
   y="0px"
   viewBox="0 0 2445.8759 2204.9998"
   enable-background="new 0 0 1000 1000"
   xml:space="preserve"
   id="svg2"
   inkscape:version="1.4.3 (0d15f75, 2025-12-25)"
   sodipodi:docname="facet.svg"
   width="2445.876"
   height="2205"
   inkscape:export-filename="facet.png"
   inkscape:export-xdpi="90"
   inkscape:export-ydpi="90"
   xmlns:inkscape="http://www.inkscape.org/namespaces/inkscape"
   xmlns:sodipodi="http://sodipodi.sourceforge.net/DTD/sodipodi-0.dtd"
   xmlns:xlink="http://www.w3.org/1999/xlink"
   xmlns="http://www.w3.org/2000/svg"
   xmlns:svg="http://www.w3.org/2000/svg"
   xmlns:rdf="http://www.w3.org/1999/02/22-rdf-syntax-ns#"
   xmlns:cc="http://creativecommons.org/ns#"
   xmlns:dc="http://purl.org/dc/elements/1.1/"><defs
   id="defs12"><linearGradient
     id="linearGradient4"
     inkscape:collect="always"><stop
       style="stop-color:#50b4f2;stop-opacity:1;"
       offset="0"
       id="stop4" /><stop
       style="stop-color:#0177cc;stop-opacity:1;"
       offset="1"
       id="stop5" /></linearGradient><linearGradient
     inkscape:collect="always"
     xlink:href="#linearGradient4"
     id="linearGradient5"
     x1="-4381.2798"
     y1="1507.1829"
     x2="-1538.0498"
     y2="1507.1829"
     gradientUnits="userSpaceOnUse" /><linearGradient
     inkscape:collect="always"
     xlink:href="#linearGradient4"
     id="linearGradient18"
     gradientUnits="userSpaceOnUse"
     x1="-4379.4927"
     y1="1489.3121"
     x2="-1538.0498"
     y2="1507.1829" /><linearGradient
     inkscape:collect="always"
     xlink:href="#linearGradient4"
     id="linearGradient19"
     gradientUnits="userSpaceOnUse"
     x1="-4379.4927"
     y1="1489.3121"
     x2="-1538.0498"
     y2="1507.1829" /><linearGradient
     inkscape:collect="always"
     xlink:href="#linearGradient4"
     id="linearGradient20"
     gradientUnits="userSpaceOnUse"
     x1="-4379.4927"
     y1="1489.3121"
     x2="-1538.0498"
     y2="1507.1829" /></defs><sodipodi:namedview
   pagecolor="#ffffff"
   bordercolor="#666666"
   borderopacity="1"
   objecttolerance="10"
   gridtolerance="10"
   guidetolerance="10"
   inkscape:pageopacity="0"
   inkscape:pageshadow="2"
   inkscape:window-width="3840"
   inkscape:window-height="2126"
   id="namedview10"
   showgrid="false"
   inkscape:zoom="0.3535534"
   inkscape:cx="759.43266"
   inkscape:cy="2552.6554"
   inkscape:window-x="-11"
   inkscape:window-y="-11"
   inkscape:window-maximized="1"
   inkscape:current-layer="svg2"
   fit-margin-top="150"
   fit-margin-left="150"
   fit-margin-right="150"
   fit-margin-bottom="150"
   showguides="true"
   inkscape:guide-bbox="true"
   inkscape:showpageshadow="2"
   inkscape:pagecheckerboard="0"
   inkscape:deskcolor="#d1d1d1" /><metadata
   id="metadata4"> Svg Vector Icons : http://www.onlinewebfonts.com/icon <rdf:RDF><cc:Work
     rdf:about=""><dc:format>image/svg+xml</dc:format><dc:type
       rdf:resource="http://purl.org/dc/dcmitype/StillImage" /></cc:Work></rdf:RDF></metadata>






<flowRoot
   xml:space="preserve"
   id="flowRoot4080"
   style="font-style:normal;font-variant:normal;font-weight:normal;font-stretch:normal;font-size:40px;line-height:1.25;font-family:'ROG Fonts';-inkscape-font-specification:'ROG Fonts';letter-spacing:0px;word-spacing:0px;fill:url(#linearGradient5);fill-opacity:1;stroke:none"
   transform="matrix(0.7913583,0,0,0.7913583,3594.1669,732.32337)"><flowRegion
     id="flowRegion4082"
     style="font-style:normal;font-variant:normal;font-weight:normal;font-stretch:normal;font-family:'ROG Fonts';-inkscape-font-specification:'ROG Fonts';fill:url(#linearGradient19);fill-opacity:1"><rect
       id="rect4084"
       width="4548.1108"
       height="1878.0756"
       x="-4406.6895"
       y="1076.3225"
       style="fill:url(#linearGradient18);fill-opacity:1;-inkscape-font-specification:'ROG Fonts';font-family:'ROG Fonts';font-weight:normal;font-style:normal;font-stretch:normal;font-variant:normal" /></flowRegion><flowPara
     id="flowPara4086"
     style="font-style:normal;font-variant:normal;font-weight:normal;font-stretch:normal;font-size:666.667px;font-family:'ROG Fonts';-inkscape-font-specification:'ROG Fonts';fill:url(#linearGradient20);fill-opacity:1">FACET</flowPara></flowRoot><g
   id="g12"
   transform="matrix(1.0954786,0,0,1.0954786,1659.2067,935.83229)"><g
     id="lJ6AujWV2wKjBGFUmAymV5"
     fill="#ffffff"
     transform="matrix(0.1,0,0,0.1,-1197.3443,-875.16355)"
     style="fill:#4fb4f2;fill-opacity:1"><g
       id="g2"
       style="fill:#4fb4f2;fill-opacity:1"><path
         id="pV1E8K9Bm"
         d="M 6620,13822 C 5869,13322 4904,12680 4475,12395 2405,11020 1925,10697 1922,10684 c -2,-8 25,-59 61,-112 115,-174 182,-277 187,-287 3,-6 36,-57 74,-115 38,-58 74,-114 80,-125 10,-18 44,-70 222,-340 32,-49 61,-94 64,-100 3,-5 26,-43 53,-82 26,-40 68,-106 94,-145 51,-80 162,-251 239,-368 27,-41 51,-79 54,-85 3,-5 26,-41 51,-80 25,-38 67,-104 94,-145 97,-151 179,-277 236,-363 33,-49 59,-90 59,-91 0,-5 147,-229 159,-243 6,-7 11,-15 11,-18 0,-5 60,-99 206,-320 32,-49 61,-94 64,-100 3,-5 27,-44 54,-85 27,-41 70,-106 94,-145 50,-77 161,-247 238,-365 27,-41 51,-80 54,-85 3,-6 30,-49 61,-95 31,-47 71,-110 91,-140 38,-60 155,-240 234,-360 27,-41 51,-80 54,-85 3,-6 30,-49 61,-95 31,-47 71,-110 91,-140 37,-57 150,-231 234,-360 27,-41 51,-79 54,-85 3,-5 26,-43 53,-82 26,-40 68,-106 94,-145 53,-83 167,-258 239,-368 27,-41 50,-78 52,-82 2,-4 40,-64 85,-132 45,-69 125,-191 177,-273 52,-81 114,-176 137,-212 24,-35 43,-65 43,-66 0,-1 37,-59 83,-129 45,-69 116,-178 157,-242 41,-65 103,-160 138,-211 34,-52 62,-96 62,-98 0,-2 22,-36 49,-77 26,-40 70,-107 96,-148 50,-78 156,-241 241,-370 27,-41 51,-79 54,-85 3,-5 27,-44 54,-85 27,-41 70,-106 94,-145 72,-112 171,-263 231,-355 31,-46 58,-89 61,-95 3,-6 35,-55 71,-110 117,-177 164,-250 169,-260 3,-6 39,-62 81,-125 118,-180 185,-283 198,-308 7,-12 16,-20 22,-17 10,7 11,13351 0,13398 -6,28 -13,24 -1371,-881 z m 1000,-304 c 0,-7 0,-580 0,-1273 0,-1177 -1,-1261 -17,-1272 -22,-17 -3818,-19 -3828,-3 -10,16 18,53 51,70 36,18 636,416 3309,2192 215,143 399,268 410,279 22,21 75,26 75,7 z m -13,-3341 c 11,-10 13,-670 13,-3422 0,-3114 -1,-3410 -16,-3413 -17,-4 -54,25 -54,42 0,6 -19,40 -42,76 -23,36 -60,94 -83,130 -23,36 -76,117 -117,180 -171,262 -193,295 -198,305 -3,6 -22,37 -44,70 -21,33 -62,96 -90,139 -28,44 -91,142 -141,217 -49,76 -117,180 -149,231 -55,86 -93,144 -274,423 -36,55 -79,123 -97,150 -88,137 -156,242 -233,360 -46,72 -114,175 -149,230 -36,55 -103,159 -149,230 -47,72 -106,164 -132,205 -26,40 -87,136 -137,212 -95,145 -204,314 -300,463 -56,87 -115,177 -241,370 -32,50 -61,95 -64,100 -3,6 -21,35 -41,65 -20,30 -61,93 -91,140 -153,237 -198,306 -206,316 -5,5 -15,21 -22,35 -8,13 -55,87 -105,164 -51,77 -116,178 -146,224 -30,47 -86,135 -126,195 -103,159 -210,325 -288,446 -68,105 -150,230 -241,370 -27,41 -51,80 -54,85 -3,6 -27,44 -54,85 -27,41 -76,118 -110,170 -134,207 -206,316 -221,335 -19,24 -29,60 -22,77 7,19 4406,14 4424,-5 z"
         style="fill:#4fb4f2;fill-opacity:1" /></g></g><g
     id="g11"
     fill="#ffffff"
     transform="matrix(-0.1,0,0,0.1,400.85472,-875.16355)"
     style="fill:#0177cc;fill-opacity:1"><g
       id="g10"
       style="fill:#0177cc;fill-opacity:1"><path
         id="path10"
         d="M 6620,13822 C 5869,13322 4904,12680 4475,12395 2405,11020 1925,10697 1922,10684 c -2,-8 25,-59 61,-112 115,-174 182,-277 187,-287 3,-6 36,-57 74,-115 38,-58 74,-114 80,-125 10,-18 44,-70 222,-340 32,-49 61,-94 64,-100 3,-5 26,-43 53,-82 26,-40 68,-106 94,-145 51,-80 162,-251 239,-368 27,-41 51,-79 54,-85 3,-5 26,-41 51,-80 25,-38 67,-104 94,-145 97,-151 179,-277 236,-363 33,-49 59,-90 59,-91 0,-5 147,-229 159,-243 6,-7 11,-15 11,-18 0,-5 60,-99 206,-320 32,-49 61,-94 64,-100 3,-5 27,-44 54,-85 27,-41 70,-106 94,-145 50,-77 161,-247 238,-365 27,-41 51,-80 54,-85 3,-6 30,-49 61,-95 31,-47 71,-110 91,-140 38,-60 155,-240 234,-360 27,-41 51,-80 54,-85 3,-6 30,-49 61,-95 31,-47 71,-110 91,-140 37,-57 150,-231 234,-360 27,-41 51,-79 54,-85 3,-5 26,-43 53,-82 26,-40 68,-106 94,-145 53,-83 167,-258 239,-368 27,-41 50,-78 52,-82 2,-4 40,-64 85,-132 45,-69 125,-191 177,-273 52,-81 114,-176 137,-212 24,-35 43,-65 43,-66 0,-1 37,-59 83,-129 45,-69 116,-178 157,-242 41,-65 103,-160 138,-211 34,-52 62,-96 62,-98 0,-2 22,-36 49,-77 26,-40 70,-107 96,-148 50,-78 156,-241 241,-370 27,-41 51,-79 54,-85 3,-5 27,-44 54,-85 27,-41 70,-106 94,-145 72,-112 171,-263 231,-355 31,-46 58,-89 61,-95 3,-6 35,-55 71,-110 117,-177 164,-250 169,-260 3,-6 39,-62 81,-125 118,-180 185,-283 198,-308 7,-12 16,-20 22,-17 10,7 11,13351 0,13398 -6,28 -13,24 -1371,-881 z m 1000,-304 c 0,-7 0,-580 0,-1273 0,-1177 -1,-1261 -17,-1272 -22,-17 -3818,-19 -3828,-3 -10,16 18,53 51,70 36,18 636,416 3309,2192 215,143 399,268 410,279 22,21 75,26 75,7 z m -13,-3341 c 11,-10 13,-670 13,-3422 0,-3114 -1,-3410 -16,-3413 -17,-4 -54,25 -54,42 0,6 -19,40 -42,76 -23,36 -60,94 -83,130 -23,36 -76,117 -117,180 -171,262 -193,295 -198,305 -3,6 -22,37 -44,70 -21,33 -62,96 -90,139 -28,44 -91,142 -141,217 -49,76 -117,180 -149,231 -55,86 -93,144 -274,423 -36,55 -79,123 -97,150 -88,137 -156,242 -233,360 -46,72 -114,175 -149,230 -36,55 -103,159 -149,230 -47,72 -106,164 -132,205 -26,40 -87,136 -137,212 -95,145 -204,314 -300,463 -56,87 -115,177 -241,370 -32,50 -61,95 -64,100 -3,6 -21,35 -41,65 -20,30 -61,93 -91,140 -153,237 -198,306 -206,316 -5,5 -15,21 -22,35 -8,13 -55,87 -105,164 -51,77 -116,178 -146,224 -30,47 -86,135 -126,195 -103,159 -210,325 -288,446 -68,105 -150,230 -241,370 -27,41 -51,80 -54,85 -3,6 -27,44 -54,85 -27,41 -76,118 -110,170 -134,207 -206,316 -221,335 -19,24 -29,60 -22,77 7,19 4406,14 4424,-5 z"
         style="fill:#0177cc;fill-opacity:1" /></g></g></g></svg>
